<mxfile host="65bd71144e">
    <diagram id="5gMrNbhCcvMap2-kCo8e" name="Page-1">
        <mxGraphModel dx="1326" dy="671" grid="1" gridSize="5" guides="1" tooltips="1" connect="1" arrows="1" fold="1" page="1" pageScale="1" pageWidth="827" pageHeight="1169" math="0" shadow="0">
            <root>
                <mxCell id="0"/>
                <mxCell id="1" parent="0"/>
                <mxCell id="328" style="edgeStyle=elbowEdgeStyle;rounded=0;elbow=vertical;html=1;entryX=0.5;entryY=0;entryDx=0;entryDy=0;" parent="1" target="174" edge="1">
                    <mxGeometry relative="1" as="geometry">
                        <mxPoint x="122" y="165" as="sourcePoint"/>
                    </mxGeometry>
                </mxCell>
                <mxCell id="72" value="This is the &quot;get speed&quot; function" style="text;html=1;align=center;verticalAlign=middle;resizable=0;points=[];autosize=1;strokeColor=none;fillColor=none;" parent="1" vertex="1">
                    <mxGeometry x="27" y="65" width="185" height="30" as="geometry"/>
                </mxCell>
                <mxCell id="329" style="rounded=0;elbow=vertical;html=1;entryX=0.5;entryY=0;entryDx=0;entryDy=0;entryPerimeter=0;" parent="1" source="174" edge="1">
                    <mxGeometry relative="1" as="geometry">
                        <mxPoint x="122" y="290" as="targetPoint"/>
                    </mxGeometry>
                </mxCell>
                <mxCell id="174" value="return&lt;br style=&quot;font-size: 12px;&quot;&gt;this.speed" style="shape=parallelogram;html=1;strokeWidth=2;perimeter=parallelogramPerimeter;whiteSpace=wrap;rounded=1;arcSize=12;size=0.23;fontSize=12;" parent="1" vertex="1">
                    <mxGeometry x="72" y="200" width="100" height="60" as="geometry"/>
                </mxCell>
                <mxCell id="330" style="edgeStyle=none;rounded=0;html=1;elbow=vertical;" parent="1" target="304" edge="1">
                    <mxGeometry relative="1" as="geometry">
                        <mxPoint x="322" y="165" as="sourcePoint"/>
                    </mxGeometry>
                </mxCell>
                <mxCell id="262" value="This is the &quot;setSpeed&quot; function&amp;nbsp;" style="text;html=1;align=center;verticalAlign=middle;resizable=0;points=[];autosize=1;strokeColor=none;fillColor=none;" parent="1" vertex="1">
                    <mxGeometry x="308" y="60" width="190" height="30" as="geometry"/>
                </mxCell>
                <mxCell id="268" style="edgeStyle=none;html=1;entryX=0.5;entryY=0;entryDx=0;entryDy=0;fontSize=12;" parent="1" edge="1">
                    <mxGeometry relative="1" as="geometry">
                        <mxPoint x="370" y="340" as="sourcePoint"/>
                    </mxGeometry>
                </mxCell>
                <mxCell id="307" style="edgeStyle=orthogonalEdgeStyle;rounded=0;html=1;fontSize=12;" parent="1" source="266" edge="1">
                    <mxGeometry relative="1" as="geometry">
                        <mxPoint x="462" y="165" as="targetPoint"/>
                    </mxGeometry>
                </mxCell>
                <mxCell id="266" value="this.speed = newSpeed" style="rounded=1;whiteSpace=wrap;html=1;absoluteArcSize=1;arcSize=14;strokeWidth=2;fontSize=12;" parent="1" vertex="1">
                    <mxGeometry x="412" y="200" width="100" height="60" as="geometry"/>
                </mxCell>
                <mxCell id="270" style="edgeStyle=none;html=1;fontSize=12;" parent="1" edge="1">
                    <mxGeometry relative="1" as="geometry">
                        <mxPoint x="408.5000000000001" y="410" as="sourcePoint"/>
                    </mxGeometry>
                </mxCell>
                <mxCell id="278" style="edgeStyle=none;html=1;entryX=0;entryY=0.5;entryDx=0;entryDy=0;fontSize=9;" parent="1" edge="1">
                    <mxGeometry relative="1" as="geometry">
                        <mxPoint x="559.5" y="210" as="sourcePoint"/>
                    </mxGeometry>
                </mxCell>
                <mxCell id="302" value="&lt;b&gt;Airplane&lt;/b&gt;" style="text;html=1;align=center;verticalAlign=middle;resizable=0;points=[];autosize=1;strokeColor=none;fillColor=none;" parent="1" vertex="1">
                    <mxGeometry x="32" y="25" width="70" height="30" as="geometry"/>
                </mxCell>
                <mxCell id="331" style="edgeStyle=none;rounded=0;html=1;entryX=0;entryY=0.5;entryDx=0;entryDy=0;elbow=vertical;" parent="1" source="304" target="266" edge="1">
                    <mxGeometry relative="1" as="geometry"/>
                </mxCell>
                <mxCell id="304" value="Get&lt;br&gt;newSpeed" style="shape=parallelogram;html=1;strokeWidth=2;perimeter=parallelogramPerimeter;whiteSpace=wrap;rounded=1;arcSize=12;size=0.23;fontSize=12;" parent="1" vertex="1">
                    <mxGeometry x="272" y="200" width="100" height="60" as="geometry"/>
                </mxCell>
                <mxCell id="308" style="edgeStyle=none;html=1;entryX=0.5;entryY=0;entryDx=0;entryDy=0;" parent="1" target="312" edge="1">
                    <mxGeometry relative="1" as="geometry">
                        <mxPoint x="152" y="580" as="targetPoint"/>
                        <mxPoint x="132" y="530" as="sourcePoint"/>
                    </mxGeometry>
                </mxCell>
                <mxCell id="332" style="edgeStyle=none;rounded=0;html=1;elbow=vertical;" parent="1" source="312" target="319" edge="1">
                    <mxGeometry relative="1" as="geometry"/>
                </mxCell>
                <mxCell id="312" value="Get&lt;br&gt;newSpeed" style="shape=parallelogram;html=1;strokeWidth=2;perimeter=parallelogramPerimeter;whiteSpace=wrap;rounded=1;arcSize=12;size=0.23;fontSize=12;" parent="1" vertex="1">
                    <mxGeometry x="82" y="570" width="100" height="60" as="geometry"/>
                </mxCell>
                <mxCell id="313" value="This is the &quot;setSpeed&quot; function&amp;nbsp;" style="text;html=1;align=center;verticalAlign=middle;resizable=0;points=[];autosize=1;strokeColor=none;fillColor=none;" parent="1" vertex="1">
                    <mxGeometry x="118" y="425" width="190" height="30" as="geometry"/>
                </mxCell>
                <mxCell id="334" style="edgeStyle=none;rounded=0;html=1;elbow=vertical;" parent="1" target="326" edge="1">
                    <mxGeometry relative="1" as="geometry">
                        <mxPoint x="467" y="530" as="sourcePoint"/>
                    </mxGeometry>
                </mxCell>
                <mxCell id="318" value="This is the &quot;Accelerate&quot; function" style="text;html=1;align=center;verticalAlign=middle;resizable=0;points=[];autosize=1;strokeColor=none;fillColor=none;" parent="1" vertex="1">
                    <mxGeometry x="392" y="430" width="190" height="30" as="geometry"/>
                </mxCell>
                <mxCell id="333" style="edgeStyle=none;rounded=0;html=1;entryX=0.5;entryY=1;entryDx=0;entryDy=0;entryPerimeter=0;elbow=vertical;" parent="1" source="319" edge="1">
                    <mxGeometry relative="1" as="geometry">
                        <mxPoint x="289.5" y="530" as="targetPoint"/>
                    </mxGeometry>
                </mxCell>
                <mxCell id="319" value="super.setSpeed(&lt;br&gt;newSpeed * 2)" style="rounded=1;whiteSpace=wrap;html=1;absoluteArcSize=1;arcSize=14;strokeWidth=2;fontSize=12;" parent="1" vertex="1">
                    <mxGeometry x="222" y="570" width="135" height="60" as="geometry"/>
                </mxCell>
                <mxCell id="320" value="&lt;b&gt;Jet extends Airplane class&lt;br&gt;&lt;/b&gt;" style="text;html=1;align=center;verticalAlign=middle;resizable=0;points=[];autosize=1;strokeColor=none;fillColor=none;" parent="1" vertex="1">
                    <mxGeometry x="25" y="390" width="175" height="30" as="geometry"/>
                </mxCell>
                <mxCell id="335" style="edgeStyle=none;rounded=0;html=1;entryX=0;entryY=0.5;entryDx=0;entryDy=0;entryPerimeter=0;elbow=vertical;" parent="1" source="326" edge="1">
                    <mxGeometry relative="1" as="geometry">
                        <mxPoint x="577" y="600" as="targetPoint"/>
                    </mxGeometry>
                </mxCell>
                <mxCell id="326" value="super.setSpeed(&lt;br&gt;this.speed * 2)" style="rounded=1;whiteSpace=wrap;html=1;absoluteArcSize=1;arcSize=14;strokeWidth=2;fontSize=12;" parent="1" vertex="1">
                    <mxGeometry x="417" y="570" width="100" height="60" as="geometry"/>
                </mxCell>
                <mxCell id="336" value="Start" style="strokeWidth=2;html=1;shape=mxgraph.flowchart.terminator;whiteSpace=wrap;" vertex="1" parent="1">
                    <mxGeometry x="82" y="470" width="100" height="60" as="geometry"/>
                </mxCell>
                <mxCell id="337" value="Stop" style="strokeWidth=2;html=1;shape=mxgraph.flowchart.terminator;whiteSpace=wrap;" vertex="1" parent="1">
                    <mxGeometry x="239.5" y="470" width="100" height="60" as="geometry"/>
                </mxCell>
                <mxCell id="338" value="Start" style="strokeWidth=2;html=1;shape=mxgraph.flowchart.terminator;whiteSpace=wrap;" vertex="1" parent="1">
                    <mxGeometry x="417" y="470" width="100" height="60" as="geometry"/>
                </mxCell>
                <mxCell id="339" value="Stop" style="strokeWidth=2;html=1;shape=mxgraph.flowchart.terminator;whiteSpace=wrap;" vertex="1" parent="1">
                    <mxGeometry x="577" y="570" width="100" height="60" as="geometry"/>
                </mxCell>
                <mxCell id="340" value="Start" style="strokeWidth=2;html=1;shape=mxgraph.flowchart.terminator;whiteSpace=wrap;" vertex="1" parent="1">
                    <mxGeometry x="72" y="105" width="100" height="60" as="geometry"/>
                </mxCell>
                <mxCell id="341" value="Stop" style="strokeWidth=2;html=1;shape=mxgraph.flowchart.terminator;whiteSpace=wrap;" vertex="1" parent="1">
                    <mxGeometry x="72" y="290" width="100" height="60" as="geometry"/>
                </mxCell>
                <mxCell id="342" value="Start" style="strokeWidth=2;html=1;shape=mxgraph.flowchart.terminator;whiteSpace=wrap;" vertex="1" parent="1">
                    <mxGeometry x="272" y="105" width="100" height="60" as="geometry"/>
                </mxCell>
                <mxCell id="343" value="Stop" style="strokeWidth=2;html=1;shape=mxgraph.flowchart.terminator;whiteSpace=wrap;" vertex="1" parent="1">
                    <mxGeometry x="412" y="105" width="100" height="60" as="geometry"/>
                </mxCell>
            </root>
        </mxGraphModel>
    </diagram>
</mxfile>